<?xml version="1.0" encoding="UTF-8" standalone="no"?>
<!-- Created with Inkscape (http://www.inkscape.org/) -->

<svg
   width="700mm"
   height="482mm"
   viewBox="0 0 700 482"
   version="1.1"
   id="svg5"
   xml:space="preserve"
   inkscape:version="1.2.2 (b0a8486541, 2022-12-01)"
   sodipodi:docname="drawing.svg"
   inkscape:export-filename="geoplace_logo.svg"
   inkscape:export-xdpi="96"
   inkscape:export-ydpi="96"
   xmlns:inkscape="http://www.inkscape.org/namespaces/inkscape"
   xmlns:sodipodi="http://sodipodi.sourceforge.net/DTD/sodipodi-0.dtd"
   xmlns="http://www.w3.org/2000/svg"
   xmlns:svg="http://www.w3.org/2000/svg"><sodipodi:namedview
     id="namedview7"
     pagecolor="#505050"
     bordercolor="#eeeeee"
     borderopacity="1"
     inkscape:showpageshadow="0"
     inkscape:pageopacity="0"
     inkscape:pagecheckerboard="0"
     inkscape:deskcolor="#505050"
     inkscape:document-units="px"
     showgrid="false"
     inkscape:zoom="0.088504909"
     inkscape:cx="2095.9289"
     inkscape:cy="824.813"
     inkscape:window-width="1366"
     inkscape:window-height="736"
     inkscape:window-x="0"
     inkscape:window-y="0"
     inkscape:window-maximized="1"
     inkscape:current-layer="layer1"
     showguides="false"><inkscape:grid
       type="xygrid"
       id="grid1920"
       originx="0"
       originy="0" /></sodipodi:namedview><defs
     id="defs2" /><g
     inkscape:label="Layer 1"
     inkscape:groupmode="layer"
     id="layer1"><ellipse
       style="fill:#e7f3fa;fill-opacity:1;stroke:none;stroke-width:1.30571;stroke-dasharray:none;stroke-opacity:1"
       id="path22619-9"
       cx="352.3338"
       cy="133.5273"
       rx="94.753761"
       ry="95.612167" /><path
       style="fill:#118d38;fill-opacity:1;stroke:none;stroke-width:1.15352;stroke-dasharray:none;stroke-opacity:1"
       d="m 348.90431,276.64939 0.0701,-49.37184 6.31009,-1.12772 c 17.56102,-3.13846 32.61706,-5.98744 46.45581,-15.244 20.1441,-13.47418 34.08502,-33.81859 39.81091,-58.09736 1.52153,-6.45157 1.62155,-7.66151 1.61721,-19.5655 -0.004,-11.02101 -0.17682,-13.48461 -1.31473,-18.74465 -6.45645,-29.845044 -23.37446,-52.090714 -49.40416,-64.962178 -12.56056,-6.211123 -24.84285,-9.330297 -37.53993,-9.533537 l -6.00527,-0.09615 V 29.908169 20.37231 l 3.32462,-0.404208 c 4.95491,8.18e-4 15.38546,0.992846 20.61084,2.016053 19.53652,3.825514 40.65569,15.181803 56.74376,30.512499 18.2873,17.426372 31.33084,41.100602 35.23864,63.958756 2.30363,13.47503 1.29986,32.02046 -2.5632,47.35562 -9.1353,36.26458 -45.75275,94.65543 -87.16273,138.99148 -11.21359,12.00593 -24.08215,23.94264 -25.81177,23.94264 -0.20909,0 -0.38016,-22.54313 -0.38016,-50.09585 z"
       id="path4870"
       sodipodi:nodetypes="ccsssssssccccsssssscc" /><path
       style="fill:#2daf41;fill-opacity:1;stroke:none;stroke-width:2.30703;stroke-dasharray:none;stroke-opacity:1"
       d="m 344.51368,321.99774 c -14.36326,-12.00017 -43.85635,-51.51585 -67.48443,-90.41755 -22.53292,-37.09863 -34.61397,-66.097 -37.26814,-89.45541 -2.94294,-25.89991 5.93148,-54.311875 24.09349,-77.136365 18.54924,-23.311137 51.05358,-41.503394 78.80017,-44.103405 l 7.78623,-0.729613 v 9.803241 9.968369 l -7.96513,0.50262 c -10.07136,0.635529 -27.29732,6.572056 -36.37643,12.087322 -9.44241,5.735945 -22.1664,18.535669 -29.26809,29.44228 -8.73329,13.412361 -12.98595,25.436351 -13.95632,39.460191 -1.71643,24.80541 1.59156,41.82 11.31162,58.18128 10.44347,17.57896 22.67728,28.87392 40.72394,37.59874 9.76442,4.72069 14.52257,6.0713 32.935,9.34867 l 2.59541,0.46196 v 49.57921 c 0,27.26856 -0.21043,49.57922 -0.46763,49.57922 -0.25718,0 -2.71406,-1.87686 -5.45969,-4.17076 z"
       id="path12117"
       sodipodi:nodetypes="ssssscccssssssscsss" /><g
       id="g15915"
       style="fill:#227097;fill-opacity:0.992674"
       transform="matrix(1.5434353,0,0,1.5434353,119.56978,-452.99871)"><rect
         style="fill:#227097;fill-opacity:0.992674;stroke:none;stroke-width:0.408703;stroke-dasharray:none;stroke-opacity:1"
         id="rect15615-7-2-7"
         width="6.5154958"
         height="5.7683082"
         x="132.44972"
         y="368.9566"
         transform="matrix(0.99999713,0.00239557,0.02688132,0.99963863,0,0)" /><rect
         style="fill:#227097;fill-opacity:0.992674;stroke:none;stroke-width:0.408703;stroke-dasharray:none;stroke-opacity:1"
         id="rect15615-7-2-9-0"
         width="6.5154958"
         height="5.7683082"
         x="142.67769"
         y="368.64792"
         transform="matrix(0.99999713,0.00239557,0.02688132,0.99963863,0,0)" /><rect
         style="fill:#227097;fill-opacity:0.992674;stroke:none;stroke-width:0.408703;stroke-dasharray:none;stroke-opacity:1"
         id="rect15615-7-2-9-1-9"
         width="6.5154958"
         height="5.7683082"
         x="131.84462"
         y="377.93762"
         transform="matrix(0.99999713,0.00239557,0.02688132,0.99963863,0,0)" /><rect
         style="fill:#227097;fill-opacity:0.992674;stroke:none;stroke-width:0.408703;stroke-dasharray:none;stroke-opacity:1"
         id="rect15615-7-2-9-2-3"
         width="6.5154958"
         height="5.7683082"
         x="142.69313"
         y="377.91165"
         transform="matrix(0.99999713,0.00239557,0.02688132,0.99963863,0,0)" /><rect
         style="fill:#227097;fill-opacity:0.992674;stroke:none;stroke-width:0.985854;stroke-dasharray:none;stroke-opacity:1"
         id="rect15615-7-56-6"
         width="10.358501"
         height="21.11097"
         x="161.44704"
         y="344.41415"
         transform="matrix(0.99998479,0.00551626,0.0116771,0.99993182,0,0)" /><rect
         style="fill:#227097;fill-opacity:0.992674;stroke:none;stroke-width:1.24125;stroke-dasharray:none;stroke-opacity:1"
         id="rect15615-7-3-0"
         width="16.372288"
         height="21.173006"
         x="134.98579"
         y="391.14575"
         transform="matrix(0.99999388,0.00349996,0.0184025,0.99983066,0,0)" /><rect
         style="fill:#227097;fill-opacity:0.992674;stroke:none;stroke-width:1.33585;stroke-dasharray:none;stroke-opacity:1"
         id="rect15615-7-6"
         width="9.0518055"
         height="44.356915"
         x="120.7044"
         y="366.70328"
         transform="matrix(0.99991203,0.0132643,0.00485611,0.99998821,0,0)" /><rect
         style="fill:#227097;fill-opacity:0.992674;stroke:none;stroke-width:1.33585;stroke-dasharray:none;stroke-opacity:1"
         id="rect15615-7-5-2"
         width="9.0518055"
         height="44.356915"
         x="167.40788"
         y="366.01053"
         transform="matrix(0.99991203,0.0132643,0.00485611,0.99998821,0,0)" /><rect
         style="fill:#227097;fill-opacity:0.992674;stroke:none;stroke-width:1.52268;stroke-dasharray:none;stroke-opacity:1"
         id="rect15615-61"
         width="9.0523529"
         height="57.628033"
         x="351.67679"
         y="115.13617"
         transform="matrix(0.66705387,0.74500949,-0.73085823,0.6825293,0,0)" /><rect
         style="fill:#227097;fill-opacity:0.992674;stroke:none;stroke-width:1.52268;stroke-dasharray:none;stroke-opacity:1"
         id="rect15615-6-8"
         width="9.0523529"
         height="57.628033"
         x="146.34311"
         y="339.55515"
         transform="matrix(-0.66705387,0.74500949,0.73085823,0.6825293,0,0)" /></g><ellipse
       style="fill:#e7f3fa;fill-opacity:1;stroke:none;stroke-width:0.252316;stroke-dasharray:none;stroke-opacity:1"
       id="path22619-7"
       cx="350.45468"
       cy="266.86469"
       rx="18.310396"
       ry="18.476278" /><text
       xml:space="preserve"
       style="font-size:26.5507px;fill:#227097;fill-opacity:1;stroke:none;stroke-width:0.276568;stroke-dasharray:none;stroke-opacity:1"
       x="312.47052"
       y="298.57129"
       id="text22720"
       transform="scale(1.0856425,0.92111354)"><tspan
         sodipodi:role="line"
         id="tspan22718"
         style="font-size:26.5507px;fill:#227097;fill-opacity:1;stroke-width:0.276568"
         x="312.47052"
         y="298.57129">G</tspan></text><text
       xml:space="preserve"
       style="font-size:137.215px;fill:#2daf41;fill-opacity:1;stroke:none;stroke-width:1.42932;stroke-dasharray:none;stroke-opacity:1"
       x="19.284956"
       y="445.67734"
       id="text23723"><tspan
         sodipodi:role="line"
         id="tspan23721"
         style="font-style:normal;font-variant:normal;font-weight:normal;font-stretch:normal;font-family:'URW Gothic';-inkscape-font-specification:'URW Gothic';fill:#2daf41;fill-opacity:1;stroke-width:1.42932"
         x="19.284956"
         y="445.67734">geo</tspan></text><text
       xml:space="preserve"
       style="font-size:137.215px;fill:#227097;fill-opacity:1;stroke:none;stroke-width:1.42932;stroke-dasharray:none;stroke-opacity:1"
       x="292.86505"
       y="437.07538"
       id="text26520"><tspan
         sodipodi:role="line"
         id="tspan26518"
         style="font-style:normal;font-variant:normal;font-weight:normal;font-stretch:normal;font-family:'URW Gothic';-inkscape-font-specification:'URW Gothic';fill:#227097;fill-opacity:1;stroke-width:1.42932"
         x="292.86505"
         y="437.07538">place</tspan></text></g></svg>
